<mxfile host="app.diagrams.net" agent="Mozilla/5.0 (Windows NT 10.0; Win64; x64) AppleWebKit/537.36 (KHTML, like Gecko) Chrome/133.0.0.0 Safari/537.36" version="26.0.13">
  <diagram id="prtHgNgQTEPvFCAcTncT" name="Page-1">
    <mxGraphModel dx="1527" dy="361" grid="1" gridSize="10" guides="1" tooltips="1" connect="1" arrows="1" fold="1" page="1" pageScale="1" pageWidth="827" pageHeight="1169" math="0" shadow="0">
      <root>
        <mxCell id="0" />
        <mxCell id="1" parent="0" />
        <mxCell id="5ALM-dIthvbAPrTvVsFZ-13" value="" style="edgeStyle=orthogonalEdgeStyle;rounded=0;orthogonalLoop=1;jettySize=auto;html=1;" edge="1" parent="1" source="5ALM-dIthvbAPrTvVsFZ-1" target="5ALM-dIthvbAPrTvVsFZ-12">
          <mxGeometry relative="1" as="geometry" />
        </mxCell>
        <mxCell id="5ALM-dIthvbAPrTvVsFZ-1" value="לקוח משדר" style="rounded=0;whiteSpace=wrap;html=1;" vertex="1" parent="1">
          <mxGeometry x="180" y="140" width="120" height="60" as="geometry" />
        </mxCell>
        <mxCell id="5ALM-dIthvbAPrTvVsFZ-3" value="" style="edgeStyle=orthogonalEdgeStyle;rounded=0;orthogonalLoop=1;jettySize=auto;html=1;" edge="1" parent="1" source="5ALM-dIthvbAPrTvVsFZ-2" target="5ALM-dIthvbAPrTvVsFZ-1">
          <mxGeometry relative="1" as="geometry" />
        </mxCell>
        <mxCell id="5ALM-dIthvbAPrTvVsFZ-2" value="ממשק משתמש" style="rounded=0;whiteSpace=wrap;html=1;" vertex="1" parent="1">
          <mxGeometry x="40" y="140" width="120" height="60" as="geometry" />
        </mxCell>
        <mxCell id="5ALM-dIthvbAPrTvVsFZ-5" value="" style="edgeStyle=orthogonalEdgeStyle;rounded=0;orthogonalLoop=1;jettySize=auto;html=1;" edge="1" parent="1" source="5ALM-dIthvbAPrTvVsFZ-4" target="5ALM-dIthvbAPrTvVsFZ-2">
          <mxGeometry relative="1" as="geometry" />
        </mxCell>
        <mxCell id="5ALM-dIthvbAPrTvVsFZ-4" value="לקוח משדר" style="shape=umlActor;verticalLabelPosition=bottom;verticalAlign=top;html=1;outlineConnect=0;" vertex="1" parent="1">
          <mxGeometry x="-40" y="140" width="30" height="60" as="geometry" />
        </mxCell>
        <mxCell id="5ALM-dIthvbAPrTvVsFZ-15" value="" style="edgeStyle=orthogonalEdgeStyle;rounded=0;orthogonalLoop=1;jettySize=auto;html=1;" edge="1" parent="1" source="5ALM-dIthvbAPrTvVsFZ-12" target="5ALM-dIthvbAPrTvVsFZ-14">
          <mxGeometry relative="1" as="geometry" />
        </mxCell>
        <mxCell id="5ALM-dIthvbAPrTvVsFZ-12" value="פרוטוקול" style="whiteSpace=wrap;html=1;rounded=0;" vertex="1" parent="1">
          <mxGeometry x="320" y="140" width="120" height="60" as="geometry" />
        </mxCell>
        <mxCell id="5ALM-dIthvbAPrTvVsFZ-17" value="" style="edgeStyle=orthogonalEdgeStyle;rounded=0;orthogonalLoop=1;jettySize=auto;html=1;" edge="1" parent="1" source="5ALM-dIthvbAPrTvVsFZ-14" target="5ALM-dIthvbAPrTvVsFZ-16">
          <mxGeometry relative="1" as="geometry" />
        </mxCell>
        <mxCell id="5ALM-dIthvbAPrTvVsFZ-14" value="מצפין" style="whiteSpace=wrap;html=1;rounded=0;" vertex="1" parent="1">
          <mxGeometry x="460" y="140" width="120" height="60" as="geometry" />
        </mxCell>
        <mxCell id="5ALM-dIthvbAPrTvVsFZ-31" value="" style="edgeStyle=orthogonalEdgeStyle;rounded=0;orthogonalLoop=1;jettySize=auto;html=1;" edge="1" parent="1" source="5ALM-dIthvbAPrTvVsFZ-16" target="5ALM-dIthvbAPrTvVsFZ-30">
          <mxGeometry relative="1" as="geometry" />
        </mxCell>
        <mxCell id="5ALM-dIthvbAPrTvVsFZ-33" style="edgeStyle=orthogonalEdgeStyle;rounded=0;orthogonalLoop=1;jettySize=auto;html=1;entryX=0;entryY=0.5;entryDx=0;entryDy=0;" edge="1" parent="1" source="5ALM-dIthvbAPrTvVsFZ-16" target="5ALM-dIthvbAPrTvVsFZ-32">
          <mxGeometry relative="1" as="geometry" />
        </mxCell>
        <mxCell id="5ALM-dIthvbAPrTvVsFZ-16" value="שרת" style="whiteSpace=wrap;html=1;rounded=0;" vertex="1" parent="1">
          <mxGeometry x="590" y="220" width="120" height="60" as="geometry" />
        </mxCell>
        <mxCell id="5ALM-dIthvbAPrTvVsFZ-28" value="" style="edgeStyle=orthogonalEdgeStyle;rounded=0;orthogonalLoop=1;jettySize=auto;html=1;" edge="1" parent="1" source="5ALM-dIthvbAPrTvVsFZ-20" target="5ALM-dIthvbAPrTvVsFZ-23">
          <mxGeometry relative="1" as="geometry" />
        </mxCell>
        <mxCell id="5ALM-dIthvbAPrTvVsFZ-20" value="לקוח משדר" style="rounded=0;whiteSpace=wrap;html=1;" vertex="1" parent="1">
          <mxGeometry x="180" y="300" width="120" height="60" as="geometry" />
        </mxCell>
        <mxCell id="5ALM-dIthvbAPrTvVsFZ-27" value="" style="edgeStyle=orthogonalEdgeStyle;rounded=0;orthogonalLoop=1;jettySize=auto;html=1;" edge="1" parent="1" source="5ALM-dIthvbAPrTvVsFZ-21" target="5ALM-dIthvbAPrTvVsFZ-20">
          <mxGeometry relative="1" as="geometry" />
        </mxCell>
        <mxCell id="5ALM-dIthvbAPrTvVsFZ-21" value="ממשק משתמש" style="rounded=0;whiteSpace=wrap;html=1;" vertex="1" parent="1">
          <mxGeometry x="40" y="300" width="120" height="60" as="geometry" />
        </mxCell>
        <mxCell id="5ALM-dIthvbAPrTvVsFZ-26" value="" style="edgeStyle=orthogonalEdgeStyle;rounded=0;orthogonalLoop=1;jettySize=auto;html=1;" edge="1" parent="1" source="5ALM-dIthvbAPrTvVsFZ-22" target="5ALM-dIthvbAPrTvVsFZ-21">
          <mxGeometry relative="1" as="geometry" />
        </mxCell>
        <mxCell id="5ALM-dIthvbAPrTvVsFZ-22" value="לקוח משדר" style="shape=umlActor;verticalLabelPosition=bottom;verticalAlign=top;html=1;outlineConnect=0;" vertex="1" parent="1">
          <mxGeometry x="-40" y="300" width="30" height="60" as="geometry" />
        </mxCell>
        <mxCell id="5ALM-dIthvbAPrTvVsFZ-29" value="" style="edgeStyle=orthogonalEdgeStyle;rounded=0;orthogonalLoop=1;jettySize=auto;html=1;" edge="1" parent="1" source="5ALM-dIthvbAPrTvVsFZ-23" target="5ALM-dIthvbAPrTvVsFZ-24">
          <mxGeometry relative="1" as="geometry" />
        </mxCell>
        <mxCell id="5ALM-dIthvbAPrTvVsFZ-23" value="פרוטוקול" style="whiteSpace=wrap;html=1;rounded=0;" vertex="1" parent="1">
          <mxGeometry x="320" y="300" width="120" height="60" as="geometry" />
        </mxCell>
        <mxCell id="5ALM-dIthvbAPrTvVsFZ-25" style="edgeStyle=orthogonalEdgeStyle;rounded=0;orthogonalLoop=1;jettySize=auto;html=1;entryX=0.5;entryY=1;entryDx=0;entryDy=0;" edge="1" parent="1" source="5ALM-dIthvbAPrTvVsFZ-24" target="5ALM-dIthvbAPrTvVsFZ-16">
          <mxGeometry relative="1" as="geometry" />
        </mxCell>
        <mxCell id="5ALM-dIthvbAPrTvVsFZ-24" value="מצפין" style="whiteSpace=wrap;html=1;rounded=0;" vertex="1" parent="1">
          <mxGeometry x="460" y="300" width="120" height="60" as="geometry" />
        </mxCell>
        <mxCell id="5ALM-dIthvbAPrTvVsFZ-36" style="edgeStyle=orthogonalEdgeStyle;rounded=0;orthogonalLoop=1;jettySize=auto;html=1;entryX=0;entryY=0.25;entryDx=0;entryDy=0;" edge="1" parent="1" source="5ALM-dIthvbAPrTvVsFZ-30" target="5ALM-dIthvbAPrTvVsFZ-34">
          <mxGeometry relative="1" as="geometry" />
        </mxCell>
        <mxCell id="5ALM-dIthvbAPrTvVsFZ-30" value="מחבר סרטונים" style="rounded=0;whiteSpace=wrap;html=1;" vertex="1" parent="1">
          <mxGeometry x="750" y="180" width="120" height="60" as="geometry" />
        </mxCell>
        <mxCell id="5ALM-dIthvbAPrTvVsFZ-37" style="edgeStyle=orthogonalEdgeStyle;rounded=0;orthogonalLoop=1;jettySize=auto;html=1;entryX=0;entryY=0.75;entryDx=0;entryDy=0;" edge="1" parent="1" source="5ALM-dIthvbAPrTvVsFZ-32" target="5ALM-dIthvbAPrTvVsFZ-34">
          <mxGeometry relative="1" as="geometry" />
        </mxCell>
        <mxCell id="5ALM-dIthvbAPrTvVsFZ-32" value="מתמלל אודיו" style="rounded=0;whiteSpace=wrap;html=1;" vertex="1" parent="1">
          <mxGeometry x="750" y="260" width="120" height="60" as="geometry" />
        </mxCell>
        <mxCell id="5ALM-dIthvbAPrTvVsFZ-39" value="" style="edgeStyle=orthogonalEdgeStyle;rounded=0;orthogonalLoop=1;jettySize=auto;html=1;" edge="1" parent="1" source="5ALM-dIthvbAPrTvVsFZ-34" target="5ALM-dIthvbAPrTvVsFZ-38">
          <mxGeometry relative="1" as="geometry" />
        </mxCell>
        <mxCell id="5ALM-dIthvbAPrTvVsFZ-34" value="פרוטוקול" style="rounded=0;whiteSpace=wrap;html=1;" vertex="1" parent="1">
          <mxGeometry x="910" y="220" width="120" height="60" as="geometry" />
        </mxCell>
        <mxCell id="5ALM-dIthvbAPrTvVsFZ-41" value="" style="edgeStyle=orthogonalEdgeStyle;rounded=0;orthogonalLoop=1;jettySize=auto;html=1;" edge="1" parent="1" source="5ALM-dIthvbAPrTvVsFZ-38" target="5ALM-dIthvbAPrTvVsFZ-40">
          <mxGeometry relative="1" as="geometry" />
        </mxCell>
        <mxCell id="5ALM-dIthvbAPrTvVsFZ-38" value="מצפין" style="whiteSpace=wrap;html=1;rounded=0;" vertex="1" parent="1">
          <mxGeometry x="1050" y="220" width="120" height="60" as="geometry" />
        </mxCell>
        <mxCell id="5ALM-dIthvbAPrTvVsFZ-43" value="" style="edgeStyle=orthogonalEdgeStyle;rounded=0;orthogonalLoop=1;jettySize=auto;html=1;" edge="1" parent="1" source="5ALM-dIthvbAPrTvVsFZ-40" target="5ALM-dIthvbAPrTvVsFZ-42">
          <mxGeometry relative="1" as="geometry" />
        </mxCell>
        <mxCell id="5ALM-dIthvbAPrTvVsFZ-40" value="לקוח צופה" style="whiteSpace=wrap;html=1;rounded=0;" vertex="1" parent="1">
          <mxGeometry x="1190" y="220" width="120" height="60" as="geometry" />
        </mxCell>
        <mxCell id="5ALM-dIthvbAPrTvVsFZ-45" value="" style="edgeStyle=orthogonalEdgeStyle;rounded=0;orthogonalLoop=1;jettySize=auto;html=1;" edge="1" parent="1" source="5ALM-dIthvbAPrTvVsFZ-42" target="5ALM-dIthvbAPrTvVsFZ-44">
          <mxGeometry relative="1" as="geometry" />
        </mxCell>
        <mxCell id="5ALM-dIthvbAPrTvVsFZ-42" value="ממשק משתמש" style="whiteSpace=wrap;html=1;rounded=0;" vertex="1" parent="1">
          <mxGeometry x="1330" y="220" width="120" height="60" as="geometry" />
        </mxCell>
        <mxCell id="5ALM-dIthvbAPrTvVsFZ-44" value="לקוח צופה" style="shape=umlActor;verticalLabelPosition=bottom;verticalAlign=top;html=1;outlineConnect=0;" vertex="1" parent="1">
          <mxGeometry x="1480" y="220" width="30" height="60" as="geometry" />
        </mxCell>
      </root>
    </mxGraphModel>
  </diagram>
</mxfile>
